<?xml version="1.0" encoding="UTF-8" standalone="no"?>
<!-- This is a Stata 17.0 generated SVG file (http://www.stata.com) -->

<svg version="1.1" width="5.500in" height="4.000in" viewBox="0 0 3960 2880" xmlns="http://www.w3.org/2000/svg" xmlns:xlink="http://www.w3.org/1999/xlink">
	<desc>Stata Graph - Graph</desc>
	<rect x="0" y="0" width="3960" height="2880" style="fill:#EAF2F3;stroke:none"/>
	<rect x="0.00" y="0.00" width="3959.88" height="2880.00" style="fill:#EAF2F3"/>
	<rect x="2.88" y="2.88" width="3954.12" height="2874.24" style="fill:none;stroke:#EAF2F3;stroke-width:5.76"/>
	<rect x="63.36" y="237.98" width="1916.64" height="2578.66" style="fill:#EAF2F3"/>
	<rect x="65.52" y="240.14" width="1912.32" height="2574.34" style="fill:none;stroke:#EAF2F3;stroke-width:4.32"/>
	<rect x="356.40" y="444.40" width="1547.99" height="1887.49" style="fill:#FFFFFF"/>
	<rect x="358.56" y="446.56" width="1543.67" height="1883.17" style="fill:none;stroke:#FFFFFF;stroke-width:4.32"/>
	<line x1="356.40" y1="1686.89" x2="1904.39" y2="1686.89" style="stroke:#EAF2F3;stroke-width:6.48"/>
	<line x1="356.40" y1="1089.41" x2="1904.39" y2="1089.41" style="stroke:#EAF2F3;stroke-width:6.48"/>
	<line x1="356.40" y1="491.92" x2="1904.39" y2="491.92" style="stroke:#EAF2F3;stroke-width:6.48"/>
	<line x1="1039.62" y1="2331.89" x2="1039.62" y2="2274.35" style="stroke:#C10534;stroke-width:6.48"/>
	<line x1="1039.62" y1="2245.51" x2="1039.62" y2="2187.97" style="stroke:#C10534;stroke-width:6.48"/>
	<line x1="1039.62" y1="2159.13" x2="1039.62" y2="2101.59" style="stroke:#C10534;stroke-width:6.48"/>
	<line x1="1039.62" y1="2072.75" x2="1039.62" y2="2015.21" style="stroke:#C10534;stroke-width:6.48"/>
	<line x1="1039.62" y1="1986.37" x2="1039.62" y2="1928.83" style="stroke:#C10534;stroke-width:6.48"/>
	<line x1="1039.62" y1="1899.99" x2="1039.62" y2="1842.45" style="stroke:#C10534;stroke-width:6.48"/>
	<line x1="1039.62" y1="1813.61" x2="1039.62" y2="1755.94" style="stroke:#C10534;stroke-width:6.48"/>
	<line x1="1039.62" y1="1727.23" x2="1039.62" y2="1669.56" style="stroke:#C10534;stroke-width:6.48"/>
	<line x1="1039.62" y1="1640.73" x2="1039.62" y2="1583.18" style="stroke:#C10534;stroke-width:6.48"/>
	<line x1="1039.62" y1="1554.35" x2="1039.62" y2="1496.80" style="stroke:#C10534;stroke-width:6.48"/>
	<line x1="1039.62" y1="1467.97" x2="1039.62" y2="1410.42" style="stroke:#C10534;stroke-width:6.48"/>
	<line x1="1039.62" y1="1381.59" x2="1039.62" y2="1324.04" style="stroke:#C10534;stroke-width:6.48"/>
	<line x1="1039.62" y1="1295.21" x2="1039.62" y2="1237.66" style="stroke:#C10534;stroke-width:6.48"/>
	<line x1="1039.62" y1="1208.83" x2="1039.62" y2="1151.28" style="stroke:#C10534;stroke-width:6.48"/>
	<line x1="1039.62" y1="1122.45" x2="1039.62" y2="1064.90" style="stroke:#C10534;stroke-width:6.48"/>
	<line x1="1039.62" y1="1036.07" x2="1039.62" y2="978.52" style="stroke:#C10534;stroke-width:6.48"/>
	<line x1="1039.62" y1="949.69" x2="1039.62" y2="892.02" style="stroke:#C10534;stroke-width:6.48"/>
	<line x1="1039.62" y1="863.31" x2="1039.62" y2="805.64" style="stroke:#C10534;stroke-width:6.48"/>
	<line x1="1039.62" y1="776.93" x2="1039.62" y2="719.26" style="stroke:#C10534;stroke-width:6.48"/>
	<line x1="1039.62" y1="690.42" x2="1039.62" y2="632.88" style="stroke:#C10534;stroke-width:6.48"/>
	<line x1="1039.62" y1="604.04" x2="1039.62" y2="546.50" style="stroke:#C10534;stroke-width:6.48"/>
	<line x1="1039.62" y1="517.66" x2="1039.62" y2="460.12" style="stroke:#C10534;stroke-width:6.48"/>
	<path d=" M403.92 1810.02 L494.75 1804.83 L585.46 1795.54 L676.29 1738.49 L767.13 1740.35 L857.96 1713.00 L948.67 1664.49 L1039.50 1686.77 L1130.33 1433.19 L1221.17 1567.22 L1312.00 1611.65 L1402.71 1635.65 L1493.54 1619.07 L1584.37 1631.08 L1675.20 1592.46 L1765.91 1599.39 L1856.75 1564.37" stroke-linejoin="round" style="fill:none;stroke:#1A476F;stroke-width:6.48"/>
	<circle cx="403.92" cy="1810.02" r="19.70" style="fill:#1A476F"/>
	<circle cx="403.92" cy="1810.02" r="16.46" style="fill:none;stroke:#1A476F;stroke-width:6.48"/>
	<circle cx="494.75" cy="1804.83" r="19.70" style="fill:#1A476F"/>
	<circle cx="494.75" cy="1804.83" r="16.46" style="fill:none;stroke:#1A476F;stroke-width:6.48"/>
	<circle cx="585.46" cy="1795.54" r="19.70" style="fill:#1A476F"/>
	<circle cx="585.46" cy="1795.54" r="16.46" style="fill:none;stroke:#1A476F;stroke-width:6.48"/>
	<circle cx="676.29" cy="1738.49" r="19.70" style="fill:#1A476F"/>
	<circle cx="676.29" cy="1738.49" r="16.46" style="fill:none;stroke:#1A476F;stroke-width:6.48"/>
	<circle cx="767.13" cy="1740.35" r="19.70" style="fill:#1A476F"/>
	<circle cx="767.13" cy="1740.35" r="16.46" style="fill:none;stroke:#1A476F;stroke-width:6.48"/>
	<circle cx="857.96" cy="1713.00" r="19.70" style="fill:#1A476F"/>
	<circle cx="857.96" cy="1713.00" r="16.46" style="fill:none;stroke:#1A476F;stroke-width:6.48"/>
	<circle cx="948.67" cy="1664.49" r="19.70" style="fill:#1A476F"/>
	<circle cx="948.67" cy="1664.49" r="16.46" style="fill:none;stroke:#1A476F;stroke-width:6.48"/>
	<circle cx="1039.50" cy="1686.77" r="19.70" style="fill:#1A476F"/>
	<circle cx="1039.50" cy="1686.77" r="16.46" style="fill:none;stroke:#1A476F;stroke-width:6.48"/>
	<circle cx="1130.33" cy="1433.19" r="19.70" style="fill:#1A476F"/>
	<circle cx="1130.33" cy="1433.19" r="16.46" style="fill:none;stroke:#1A476F;stroke-width:6.48"/>
	<circle cx="1221.17" cy="1567.22" r="19.70" style="fill:#1A476F"/>
	<circle cx="1221.17" cy="1567.22" r="16.46" style="fill:none;stroke:#1A476F;stroke-width:6.48"/>
	<circle cx="1312.00" cy="1611.65" r="19.70" style="fill:#1A476F"/>
	<circle cx="1312.00" cy="1611.65" r="16.46" style="fill:none;stroke:#1A476F;stroke-width:6.48"/>
	<circle cx="1402.71" cy="1635.65" r="19.70" style="fill:#1A476F"/>
	<circle cx="1402.71" cy="1635.65" r="16.46" style="fill:none;stroke:#1A476F;stroke-width:6.48"/>
	<circle cx="1493.54" cy="1619.07" r="19.70" style="fill:#1A476F"/>
	<circle cx="1493.54" cy="1619.07" r="16.46" style="fill:none;stroke:#1A476F;stroke-width:6.48"/>
	<circle cx="1584.37" cy="1631.08" r="19.70" style="fill:#1A476F"/>
	<circle cx="1584.37" cy="1631.08" r="16.46" style="fill:none;stroke:#1A476F;stroke-width:6.48"/>
	<circle cx="1675.20" cy="1592.46" r="19.70" style="fill:#1A476F"/>
	<circle cx="1675.20" cy="1592.46" r="16.46" style="fill:none;stroke:#1A476F;stroke-width:6.48"/>
	<circle cx="1765.91" cy="1599.39" r="19.70" style="fill:#1A476F"/>
	<circle cx="1765.91" cy="1599.39" r="16.46" style="fill:none;stroke:#1A476F;stroke-width:6.48"/>
	<circle cx="1856.75" cy="1564.37" r="19.70" style="fill:#1A476F"/>
	<circle cx="1856.75" cy="1564.37" r="16.46" style="fill:none;stroke:#1A476F;stroke-width:6.48"/>
	<path d=" M403.92 771.11 L494.75 798.09 L585.46 742.52 L676.29 719.75 L767.13 687.08 L857.96 686.22 L948.67 629.78 L1039.50 636.96 L1130.33 637.46 L1221.17 632.26 L1312.00 624.59 L1402.71 641.17 L1493.54 609.49 L1584.37 584.12 L1675.20 554.79 L1765.91 549.59 L1856.75 541.92" stroke-linejoin="round" style="fill:none;stroke:#90353B;stroke-width:6.48"/>
	<circle cx="403.92" cy="771.11" r="19.70" style="fill:#90353B"/>
	<circle cx="403.92" cy="771.11" r="16.46" style="fill:none;stroke:#90353B;stroke-width:6.48"/>
	<circle cx="494.75" cy="798.09" r="19.70" style="fill:#90353B"/>
	<circle cx="494.75" cy="798.09" r="16.46" style="fill:none;stroke:#90353B;stroke-width:6.48"/>
	<circle cx="585.46" cy="742.52" r="19.70" style="fill:#90353B"/>
	<circle cx="585.46" cy="742.52" r="16.46" style="fill:none;stroke:#90353B;stroke-width:6.48"/>
	<circle cx="676.29" cy="719.75" r="19.70" style="fill:#90353B"/>
	<circle cx="676.29" cy="719.75" r="16.46" style="fill:none;stroke:#90353B;stroke-width:6.48"/>
	<circle cx="767.13" cy="687.08" r="19.70" style="fill:#90353B"/>
	<circle cx="767.13" cy="687.08" r="16.46" style="fill:none;stroke:#90353B;stroke-width:6.48"/>
	<circle cx="857.96" cy="686.22" r="19.70" style="fill:#90353B"/>
	<circle cx="857.96" cy="686.22" r="16.46" style="fill:none;stroke:#90353B;stroke-width:6.48"/>
	<circle cx="948.67" cy="629.78" r="19.70" style="fill:#90353B"/>
	<circle cx="948.67" cy="629.78" r="16.46" style="fill:none;stroke:#90353B;stroke-width:6.48"/>
	<circle cx="1039.50" cy="636.96" r="19.70" style="fill:#90353B"/>
	<circle cx="1039.50" cy="636.96" r="16.46" style="fill:none;stroke:#90353B;stroke-width:6.48"/>
	<circle cx="1130.33" cy="637.46" r="19.70" style="fill:#90353B"/>
	<circle cx="1130.33" cy="637.46" r="16.46" style="fill:none;stroke:#90353B;stroke-width:6.48"/>
	<circle cx="1221.17" cy="632.26" r="19.70" style="fill:#90353B"/>
	<circle cx="1221.17" cy="632.26" r="16.46" style="fill:none;stroke:#90353B;stroke-width:6.48"/>
	<circle cx="1312.00" cy="624.59" r="19.70" style="fill:#90353B"/>
	<circle cx="1312.00" cy="624.59" r="16.46" style="fill:none;stroke:#90353B;stroke-width:6.48"/>
	<circle cx="1402.71" cy="641.17" r="19.70" style="fill:#90353B"/>
	<circle cx="1402.71" cy="641.17" r="16.46" style="fill:none;stroke:#90353B;stroke-width:6.48"/>
	<circle cx="1493.54" cy="609.49" r="19.70" style="fill:#90353B"/>
	<circle cx="1493.54" cy="609.49" r="16.46" style="fill:none;stroke:#90353B;stroke-width:6.48"/>
	<circle cx="1584.37" cy="584.12" r="19.70" style="fill:#90353B"/>
	<circle cx="1584.37" cy="584.12" r="16.46" style="fill:none;stroke:#90353B;stroke-width:6.48"/>
	<circle cx="1675.20" cy="554.79" r="19.70" style="fill:#90353B"/>
	<circle cx="1675.20" cy="554.79" r="16.46" style="fill:none;stroke:#90353B;stroke-width:6.48"/>
	<circle cx="1765.91" cy="549.59" r="19.70" style="fill:#90353B"/>
	<circle cx="1765.91" cy="549.59" r="16.46" style="fill:none;stroke:#90353B;stroke-width:6.48"/>
	<circle cx="1856.75" cy="541.92" r="19.70" style="fill:#90353B"/>
	<circle cx="1856.75" cy="541.92" r="16.46" style="fill:none;stroke:#90353B;stroke-width:6.48"/>
	<line x1="356.40" y1="2331.89" x2="356.40" y2="444.40" style="stroke:#000000;stroke-width:4.32"/>
	<line x1="356.40" y1="2284.37" x2="326.45" y2="2284.37" style="stroke:#000000;stroke-width:4.32"/>
	<text x="288.92" y="2284.37" style="font-family:'Helvetica';font-size:74.99px;fill:#000000" transform="rotate(-90 288.92,2284.37)" text-anchor="middle">9.5</text>
	<line x1="356.40" y1="1686.89" x2="326.45" y2="1686.89" style="stroke:#000000;stroke-width:4.32"/>
	<text x="288.92" y="1686.89" style="font-family:'Helvetica';font-size:74.99px;fill:#000000" transform="rotate(-90 288.92,1686.89)" text-anchor="middle">10</text>
	<line x1="356.40" y1="1089.41" x2="326.45" y2="1089.41" style="stroke:#000000;stroke-width:4.32"/>
	<text x="288.92" y="1089.41" style="font-family:'Helvetica';font-size:74.99px;fill:#000000" transform="rotate(-90 288.92,1089.41)" text-anchor="middle">10.5</text>
	<line x1="356.40" y1="491.92" x2="326.45" y2="491.92" style="stroke:#000000;stroke-width:4.32"/>
	<text x="288.92" y="491.92" style="font-family:'Helvetica';font-size:74.99px;fill:#000000" transform="rotate(-90 288.92,491.92)" text-anchor="middle">11</text>
	<text x="206.38" y="1388.15" style="font-family:'Helvetica';font-size:74.99px;fill:#000000" transform="rotate(-90 206.38,1388.15)" text-anchor="middle">Log-earnings</text>
	<line x1="356.40" y1="2331.89" x2="1904.39" y2="2331.89" style="stroke:#000000;stroke-width:4.32"/>
	<line x1="403.92" y1="2331.89" x2="403.92" y2="2361.84" style="stroke:#000000;stroke-width:4.32"/>
	<text x="403.92" y="2429.38" style="font-family:'Helvetica';font-size:74.99px;fill:#000000" text-anchor="middle">1995</text>
	<line x1="857.96" y1="2331.89" x2="857.96" y2="2361.84" style="stroke:#000000;stroke-width:4.32"/>
	<text x="857.96" y="2429.38" style="font-family:'Helvetica';font-size:74.99px;fill:#000000" text-anchor="middle">2000</text>
	<line x1="1312.00" y1="2331.89" x2="1312.00" y2="2361.84" style="stroke:#000000;stroke-width:4.32"/>
	<text x="1312.00" y="2429.38" style="font-family:'Helvetica';font-size:74.99px;fill:#000000" text-anchor="middle">2005</text>
	<line x1="1766.04" y1="2331.89" x2="1766.04" y2="2361.84" style="stroke:#000000;stroke-width:4.32"/>
	<text x="1766.04" y="2429.38" style="font-family:'Helvetica';font-size:74.99px;fill:#000000" text-anchor="middle">2010</text>
	<text x="1130.33" y="2511.80" style="font-family:'Helvetica';font-size:74.99px;fill:#000000" text-anchor="middle">Year</text>
	<rect x="430.16" y="2575.32" width="1400.48" height="139.84" style="fill:#FFFFFF"/>
	<rect x="432.31" y="2577.48" width="1396.16" height="135.52" style="fill:none;stroke:#000000;stroke-width:4.32"/>
	<line x1="462.45" y1="2645.24" x2="743.24" y2="2645.24" style="stroke:#1A476F;stroke-width:6.48"/>
	<circle cx="602.91" cy="2645.24" r="19.70" style="fill:#1A476F"/>
	<circle cx="602.91" cy="2645.24" r="16.46" style="fill:none;stroke:#1A476F;stroke-width:6.48"/>
	<line x1="1207.92" y1="2645.24" x2="1488.71" y2="2645.24" style="stroke:#90353B;stroke-width:6.48"/>
	<circle cx="1348.26" cy="2645.24" r="19.70" style="fill:#90353B"/>
	<circle cx="1348.26" cy="2645.24" r="16.46" style="fill:none;stroke:#90353B;stroke-width:6.48"/>
	<text x="803.26" y="2671.52" style="font-family:'Helvetica';font-size:74.99px;fill:#000000">Treated</text>
	<text x="1548.61" y="2671.52" style="font-family:'Helvetica';font-size:74.99px;fill:#000000">Control</text>
	<text x="1130.33" y="399.98" style="font-family:'Helvetica';font-size:104.94px;fill:#1E2D53" text-anchor="middle">Region 1</text>
	<rect x="1980.00" y="237.98" width="1916.52" height="2578.66" style="fill:#EAF2F3"/>
	<rect x="1982.16" y="240.14" width="1912.20" height="2574.34" style="fill:none;stroke:#EAF2F3;stroke-width:4.32"/>
	<rect x="2273.04" y="444.40" width="1547.87" height="1887.49" style="fill:#FFFFFF"/>
	<rect x="2275.20" y="446.56" width="1543.55" height="1883.17" style="fill:none;stroke:#FFFFFF;stroke-width:4.32"/>
	<line x1="2273.04" y1="1686.89" x2="3820.91" y2="1686.89" style="stroke:#EAF2F3;stroke-width:6.48"/>
	<line x1="2273.04" y1="1089.41" x2="3820.91" y2="1089.41" style="stroke:#EAF2F3;stroke-width:6.48"/>
	<line x1="2273.04" y1="491.92" x2="3820.91" y2="491.92" style="stroke:#EAF2F3;stroke-width:6.48"/>
	<line x1="2956.14" y1="2331.89" x2="2956.14" y2="2274.35" style="stroke:#C10534;stroke-width:6.48"/>
	<line x1="2956.14" y1="2245.51" x2="2956.14" y2="2187.97" style="stroke:#C10534;stroke-width:6.48"/>
	<line x1="2956.14" y1="2159.13" x2="2956.14" y2="2101.59" style="stroke:#C10534;stroke-width:6.48"/>
	<line x1="2956.14" y1="2072.75" x2="2956.14" y2="2015.21" style="stroke:#C10534;stroke-width:6.48"/>
	<line x1="2956.14" y1="1986.37" x2="2956.14" y2="1928.83" style="stroke:#C10534;stroke-width:6.48"/>
	<line x1="2956.14" y1="1899.99" x2="2956.14" y2="1842.45" style="stroke:#C10534;stroke-width:6.48"/>
	<line x1="2956.14" y1="1813.61" x2="2956.14" y2="1755.94" style="stroke:#C10534;stroke-width:6.48"/>
	<line x1="2956.14" y1="1727.23" x2="2956.14" y2="1669.56" style="stroke:#C10534;stroke-width:6.48"/>
	<line x1="2956.14" y1="1640.73" x2="2956.14" y2="1583.18" style="stroke:#C10534;stroke-width:6.48"/>
	<line x1="2956.14" y1="1554.35" x2="2956.14" y2="1496.80" style="stroke:#C10534;stroke-width:6.48"/>
	<line x1="2956.14" y1="1467.97" x2="2956.14" y2="1410.42" style="stroke:#C10534;stroke-width:6.48"/>
	<line x1="2956.14" y1="1381.59" x2="2956.14" y2="1324.04" style="stroke:#C10534;stroke-width:6.48"/>
	<line x1="2956.14" y1="1295.21" x2="2956.14" y2="1237.66" style="stroke:#C10534;stroke-width:6.48"/>
	<line x1="2956.14" y1="1208.83" x2="2956.14" y2="1151.28" style="stroke:#C10534;stroke-width:6.48"/>
	<line x1="2956.14" y1="1122.45" x2="2956.14" y2="1064.90" style="stroke:#C10534;stroke-width:6.48"/>
	<line x1="2956.14" y1="1036.07" x2="2956.14" y2="978.52" style="stroke:#C10534;stroke-width:6.48"/>
	<line x1="2956.14" y1="949.69" x2="2956.14" y2="892.02" style="stroke:#C10534;stroke-width:6.48"/>
	<line x1="2956.14" y1="863.31" x2="2956.14" y2="805.64" style="stroke:#C10534;stroke-width:6.48"/>
	<line x1="2956.14" y1="776.93" x2="2956.14" y2="719.26" style="stroke:#C10534;stroke-width:6.48"/>
	<line x1="2956.14" y1="690.42" x2="2956.14" y2="632.88" style="stroke:#C10534;stroke-width:6.48"/>
	<line x1="2956.14" y1="604.04" x2="2956.14" y2="546.50" style="stroke:#C10534;stroke-width:6.48"/>
	<line x1="2956.14" y1="517.66" x2="2956.14" y2="460.12" style="stroke:#C10534;stroke-width:6.48"/>
	<path d=" M2320.44 1831.19 L2411.27 1856.43 L2502.10 1832.55 L2592.93 1793.07 L2683.64 1780.57 L2774.48 1763.99 L2865.31 1710.40 L2956.14 1745.42 L3046.85 1487.65 L3137.68 1609.91 L3228.51 1664.61 L3319.35 1695.06 L3410.18 1688.75 L3500.89 1659.66 L3591.72 1647.54 L3682.55 1654.09 L3773.39 1630.58" stroke-linejoin="round" style="fill:none;stroke:#1A476F;stroke-width:6.48"/>
	<circle cx="2320.44" cy="1831.19" r="19.70" style="fill:#1A476F"/>
	<circle cx="2320.44" cy="1831.19" r="16.46" style="fill:none;stroke:#1A476F;stroke-width:6.48"/>
	<circle cx="2411.27" cy="1856.43" r="19.70" style="fill:#1A476F"/>
	<circle cx="2411.27" cy="1856.43" r="16.46" style="fill:none;stroke:#1A476F;stroke-width:6.48"/>
	<circle cx="2502.10" cy="1832.55" r="19.70" style="fill:#1A476F"/>
	<circle cx="2502.10" cy="1832.55" r="16.46" style="fill:none;stroke:#1A476F;stroke-width:6.48"/>
	<circle cx="2592.93" cy="1793.07" r="19.70" style="fill:#1A476F"/>
	<circle cx="2592.93" cy="1793.07" r="16.46" style="fill:none;stroke:#1A476F;stroke-width:6.48"/>
	<circle cx="2683.64" cy="1780.57" r="19.70" style="fill:#1A476F"/>
	<circle cx="2683.64" cy="1780.57" r="16.46" style="fill:none;stroke:#1A476F;stroke-width:6.48"/>
	<circle cx="2774.48" cy="1763.99" r="19.70" style="fill:#1A476F"/>
	<circle cx="2774.48" cy="1763.99" r="16.46" style="fill:none;stroke:#1A476F;stroke-width:6.48"/>
	<circle cx="2865.31" cy="1710.40" r="19.70" style="fill:#1A476F"/>
	<circle cx="2865.31" cy="1710.40" r="16.46" style="fill:none;stroke:#1A476F;stroke-width:6.48"/>
	<circle cx="2956.14" cy="1745.42" r="19.70" style="fill:#1A476F"/>
	<circle cx="2956.14" cy="1745.42" r="16.46" style="fill:none;stroke:#1A476F;stroke-width:6.48"/>
	<circle cx="3046.85" cy="1487.65" r="19.70" style="fill:#1A476F"/>
	<circle cx="3046.85" cy="1487.65" r="16.46" style="fill:none;stroke:#1A476F;stroke-width:6.48"/>
	<circle cx="3137.68" cy="1609.91" r="19.70" style="fill:#1A476F"/>
	<circle cx="3137.68" cy="1609.91" r="16.46" style="fill:none;stroke:#1A476F;stroke-width:6.48"/>
	<circle cx="3228.51" cy="1664.61" r="19.70" style="fill:#1A476F"/>
	<circle cx="3228.51" cy="1664.61" r="16.46" style="fill:none;stroke:#1A476F;stroke-width:6.48"/>
	<circle cx="3319.35" cy="1695.06" r="19.70" style="fill:#1A476F"/>
	<circle cx="3319.35" cy="1695.06" r="16.46" style="fill:none;stroke:#1A476F;stroke-width:6.48"/>
	<circle cx="3410.18" cy="1688.75" r="19.70" style="fill:#1A476F"/>
	<circle cx="3410.18" cy="1688.75" r="16.46" style="fill:none;stroke:#1A476F;stroke-width:6.48"/>
	<circle cx="3500.89" cy="1659.66" r="19.70" style="fill:#1A476F"/>
	<circle cx="3500.89" cy="1659.66" r="16.46" style="fill:none;stroke:#1A476F;stroke-width:6.48"/>
	<circle cx="3591.72" cy="1647.54" r="19.70" style="fill:#1A476F"/>
	<circle cx="3591.72" cy="1647.54" r="16.46" style="fill:none;stroke:#1A476F;stroke-width:6.48"/>
	<circle cx="3682.55" cy="1654.09" r="19.70" style="fill:#1A476F"/>
	<circle cx="3682.55" cy="1654.09" r="16.46" style="fill:none;stroke:#1A476F;stroke-width:6.48"/>
	<circle cx="3773.39" cy="1630.58" r="19.70" style="fill:#1A476F"/>
	<circle cx="3773.39" cy="1630.58" r="16.46" style="fill:none;stroke:#1A476F;stroke-width:6.48"/>
	<path d=" M2320.44 745.37 L2411.27 739.18 L2502.10 708.00 L2592.93 696.36 L2683.64 674.09 L2774.48 625.08 L2865.31 616.05 L2956.14 607.01 L3046.85 599.22 L3137.68 623.22 L3228.51 624.96 L3319.35 606.02 L3410.18 578.18 L3500.89 565.06 L3591.72 522.74 L3682.55 525.83 L3773.39 509.74" stroke-linejoin="round" style="fill:none;stroke:#90353B;stroke-width:6.48"/>
	<circle cx="2320.44" cy="745.37" r="19.70" style="fill:#90353B"/>
	<circle cx="2320.44" cy="745.37" r="16.46" style="fill:none;stroke:#90353B;stroke-width:6.48"/>
	<circle cx="2411.27" cy="739.18" r="19.70" style="fill:#90353B"/>
	<circle cx="2411.27" cy="739.18" r="16.46" style="fill:none;stroke:#90353B;stroke-width:6.48"/>
	<circle cx="2502.10" cy="708.00" r="19.70" style="fill:#90353B"/>
	<circle cx="2502.10" cy="708.00" r="16.46" style="fill:none;stroke:#90353B;stroke-width:6.48"/>
	<circle cx="2592.93" cy="696.36" r="19.70" style="fill:#90353B"/>
	<circle cx="2592.93" cy="696.36" r="16.46" style="fill:none;stroke:#90353B;stroke-width:6.48"/>
	<circle cx="2683.64" cy="674.09" r="19.70" style="fill:#90353B"/>
	<circle cx="2683.64" cy="674.09" r="16.46" style="fill:none;stroke:#90353B;stroke-width:6.48"/>
	<circle cx="2774.48" cy="625.08" r="19.70" style="fill:#90353B"/>
	<circle cx="2774.48" cy="625.08" r="16.46" style="fill:none;stroke:#90353B;stroke-width:6.48"/>
	<circle cx="2865.31" cy="616.05" r="19.70" style="fill:#90353B"/>
	<circle cx="2865.31" cy="616.05" r="16.46" style="fill:none;stroke:#90353B;stroke-width:6.48"/>
	<circle cx="2956.14" cy="607.01" r="19.70" style="fill:#90353B"/>
	<circle cx="2956.14" cy="607.01" r="16.46" style="fill:none;stroke:#90353B;stroke-width:6.48"/>
	<circle cx="3046.85" cy="599.22" r="19.70" style="fill:#90353B"/>
	<circle cx="3046.85" cy="599.22" r="16.46" style="fill:none;stroke:#90353B;stroke-width:6.48"/>
	<circle cx="3137.68" cy="623.22" r="19.70" style="fill:#90353B"/>
	<circle cx="3137.68" cy="623.22" r="16.46" style="fill:none;stroke:#90353B;stroke-width:6.48"/>
	<circle cx="3228.51" cy="624.96" r="19.70" style="fill:#90353B"/>
	<circle cx="3228.51" cy="624.96" r="16.46" style="fill:none;stroke:#90353B;stroke-width:6.48"/>
	<circle cx="3319.35" cy="606.02" r="19.70" style="fill:#90353B"/>
	<circle cx="3319.35" cy="606.02" r="16.46" style="fill:none;stroke:#90353B;stroke-width:6.48"/>
	<circle cx="3410.18" cy="578.18" r="19.70" style="fill:#90353B"/>
	<circle cx="3410.18" cy="578.18" r="16.46" style="fill:none;stroke:#90353B;stroke-width:6.48"/>
	<circle cx="3500.89" cy="565.06" r="19.70" style="fill:#90353B"/>
	<circle cx="3500.89" cy="565.06" r="16.46" style="fill:none;stroke:#90353B;stroke-width:6.48"/>
	<circle cx="3591.72" cy="522.74" r="19.70" style="fill:#90353B"/>
	<circle cx="3591.72" cy="522.74" r="16.46" style="fill:none;stroke:#90353B;stroke-width:6.48"/>
	<circle cx="3682.55" cy="525.83" r="19.70" style="fill:#90353B"/>
	<circle cx="3682.55" cy="525.83" r="16.46" style="fill:none;stroke:#90353B;stroke-width:6.48"/>
	<circle cx="3773.39" cy="509.74" r="19.70" style="fill:#90353B"/>
	<circle cx="3773.39" cy="509.74" r="16.46" style="fill:none;stroke:#90353B;stroke-width:6.48"/>
	<line x1="2273.04" y1="2331.89" x2="2273.04" y2="444.40" style="stroke:#000000;stroke-width:4.32"/>
	<line x1="2273.04" y1="2284.37" x2="2242.97" y2="2284.37" style="stroke:#000000;stroke-width:4.32"/>
	<text x="2205.44" y="2284.37" style="font-family:'Helvetica';font-size:74.99px;fill:#000000" transform="rotate(-90 2205.44,2284.37)" text-anchor="middle">9.5</text>
	<line x1="2273.04" y1="1686.89" x2="2242.97" y2="1686.89" style="stroke:#000000;stroke-width:4.32"/>
	<text x="2205.44" y="1686.89" style="font-family:'Helvetica';font-size:74.99px;fill:#000000" transform="rotate(-90 2205.44,1686.89)" text-anchor="middle">10</text>
	<line x1="2273.04" y1="1089.41" x2="2242.97" y2="1089.41" style="stroke:#000000;stroke-width:4.32"/>
	<text x="2205.44" y="1089.41" style="font-family:'Helvetica';font-size:74.99px;fill:#000000" transform="rotate(-90 2205.44,1089.41)" text-anchor="middle">10.5</text>
	<line x1="2273.04" y1="491.92" x2="2242.97" y2="491.92" style="stroke:#000000;stroke-width:4.32"/>
	<text x="2205.44" y="491.92" style="font-family:'Helvetica';font-size:74.99px;fill:#000000" transform="rotate(-90 2205.44,491.92)" text-anchor="middle">11</text>
	<text x="2123.02" y="1388.15" style="font-family:'Helvetica';font-size:74.99px;fill:#000000" transform="rotate(-90 2123.02,1388.15)" text-anchor="middle">Log-earnings</text>
	<line x1="2273.04" y1="2331.89" x2="3820.91" y2="2331.89" style="stroke:#000000;stroke-width:4.32"/>
	<line x1="2320.56" y1="2331.89" x2="2320.56" y2="2361.84" style="stroke:#000000;stroke-width:4.32"/>
	<text x="2320.56" y="2429.38" style="font-family:'Helvetica';font-size:74.99px;fill:#000000" text-anchor="middle">1995</text>
	<line x1="2774.60" y1="2331.89" x2="2774.60" y2="2361.84" style="stroke:#000000;stroke-width:4.32"/>
	<text x="2774.60" y="2429.38" style="font-family:'Helvetica';font-size:74.99px;fill:#000000" text-anchor="middle">2000</text>
	<line x1="3228.64" y1="2331.89" x2="3228.64" y2="2361.84" style="stroke:#000000;stroke-width:4.32"/>
	<text x="3228.64" y="2429.38" style="font-family:'Helvetica';font-size:74.99px;fill:#000000" text-anchor="middle">2005</text>
	<line x1="3682.55" y1="2331.89" x2="3682.55" y2="2361.84" style="stroke:#000000;stroke-width:4.32"/>
	<text x="3682.55" y="2429.38" style="font-family:'Helvetica';font-size:74.99px;fill:#000000" text-anchor="middle">2010</text>
	<text x="3046.97" y="2511.80" style="font-family:'Helvetica';font-size:74.99px;fill:#000000" text-anchor="middle">Year</text>
	<rect x="2346.67" y="2575.32" width="1400.60" height="139.84" style="fill:#FFFFFF"/>
	<rect x="2348.83" y="2577.48" width="1396.28" height="135.52" style="fill:none;stroke:#000000;stroke-width:4.32"/>
	<line x1="2379.09" y1="2645.24" x2="2659.88" y2="2645.24" style="stroke:#1A476F;stroke-width:6.48"/>
	<circle cx="2519.43" cy="2645.24" r="19.70" style="fill:#1A476F"/>
	<circle cx="2519.43" cy="2645.24" r="16.46" style="fill:none;stroke:#1A476F;stroke-width:6.48"/>
	<line x1="3124.44" y1="2645.24" x2="3405.23" y2="2645.24" style="stroke:#90353B;stroke-width:6.48"/>
	<circle cx="3264.90" cy="2645.24" r="19.70" style="fill:#90353B"/>
	<circle cx="3264.90" cy="2645.24" r="16.46" style="fill:none;stroke:#90353B;stroke-width:6.48"/>
	<text x="2719.90" y="2671.52" style="font-family:'Helvetica';font-size:74.99px;fill:#000000">Treated</text>
	<text x="3465.25" y="2671.52" style="font-family:'Helvetica';font-size:74.99px;fill:#000000">Control</text>
	<text x="3046.97" y="399.98" style="font-family:'Helvetica';font-size:104.94px;fill:#1E2D53" text-anchor="middle">Region 2</text>
	<text x="1980.00" y="178.60" style="font-family:'Helvetica';font-size:139.96px;fill:#1E2D53" text-anchor="middle">Panel A: Log-earnings by Region</text>
</svg>
