<?xml version="1.0" encoding="UTF-8" standalone="no"?>
<!-- This is a Stata 17.0 generated SVG file (http://www.stata.com) -->

<svg version="1.1" width="5.500in" height="4.000in" viewBox="0 0 3960 2880" xmlns="http://www.w3.org/2000/svg" xmlns:xlink="http://www.w3.org/1999/xlink">
	<desc>Stata Graph - Graph</desc>
	<rect x="0" y="0" width="3960" height="2880" style="fill:#EAF2F3;stroke:none"/>
	<rect x="0.00" y="0.00" width="3959.88" height="2880.00" style="fill:#EAF2F3"/>
	<rect x="2.88" y="2.88" width="3954.12" height="2874.24" style="fill:none;stroke:#EAF2F3;stroke-width:5.76"/>
	<rect x="248.00" y="100.86" width="3611.03" height="2388.33" style="fill:#FFFFFF"/>
	<rect x="250.87" y="103.74" width="3605.27" height="2382.57" style="fill:none;stroke:#FFFFFF;stroke-width:5.76"/>
	<line x1="248.00" y1="2489.19" x2="248.00" y2="100.86" style="stroke:#EAF2F3;stroke-width:8.64"/>
	<line x1="1125.51" y1="2489.19" x2="1125.51" y2="100.86" style="stroke:#EAF2F3;stroke-width:8.64"/>
	<line x1="2003.14" y1="2489.19" x2="2003.14" y2="100.86" style="stroke:#EAF2F3;stroke-width:8.64"/>
	<line x1="2880.65" y1="2489.19" x2="2880.65" y2="100.86" style="stroke:#EAF2F3;stroke-width:8.64"/>
	<line x1="3758.29" y1="2489.19" x2="3758.29" y2="100.86" style="stroke:#EAF2F3;stroke-width:8.64"/>
	<rect x="248.00" y="2063.60" width="3313.78" height="270.65" style="fill:#1A476F"/>
	<rect x="250.87" y="2066.48" width="3308.02" height="264.89" style="fill:none;stroke:#1A476F;stroke-width:5.76"/>
	<rect x="248.00" y="1611.65" width="3031.38" height="270.65" style="fill:#1A476F"/>
	<rect x="250.87" y="1614.53" width="3025.62" height="264.89" style="fill:none;stroke:#1A476F;stroke-width:5.76"/>
	<rect x="248.00" y="1159.70" width="3094.99" height="270.65" style="fill:#1A476F"/>
	<rect x="250.87" y="1162.58" width="3089.23" height="264.89" style="fill:none;stroke:#1A476F;stroke-width:5.76"/>
	<rect x="248.00" y="707.75" width="3155.50" height="270.65" style="fill:#1A476F"/>
	<rect x="250.87" y="710.63" width="3149.74" height="264.89" style="fill:none;stroke:#1A476F;stroke-width:5.76"/>
	<rect x="248.00" y="255.68" width="3179.01" height="270.65" style="fill:#1A476F"/>
	<rect x="250.87" y="258.56" width="3173.25" height="264.89" style="fill:none;stroke:#1A476F;stroke-width:5.76"/>
	<line x1="248.00" y1="2489.19" x2="3859.02" y2="2489.19" style="stroke:#000000;stroke-width:5.76"/>
	<line x1="248.00" y1="2489.19" x2="248.00" y2="2529.16" style="stroke:#000000;stroke-width:5.76"/>
	<text x="248.00" y="2619.14" style="font-family:'Helvetica';font-size:99.99px;fill:#000000" text-anchor="middle">0</text>
	<line x1="1125.51" y1="2489.19" x2="1125.51" y2="2529.16" style="stroke:#000000;stroke-width:5.76"/>
	<text x="1125.51" y="2619.14" style="font-family:'Helvetica';font-size:99.99px;fill:#000000" text-anchor="middle">20,000</text>
	<line x1="2003.14" y1="2489.19" x2="2003.14" y2="2529.16" style="stroke:#000000;stroke-width:5.76"/>
	<text x="2003.14" y="2619.14" style="font-family:'Helvetica';font-size:99.99px;fill:#000000" text-anchor="middle">40,000</text>
	<line x1="2880.65" y1="2489.19" x2="2880.65" y2="2529.16" style="stroke:#000000;stroke-width:5.76"/>
	<text x="2880.65" y="2619.14" style="font-family:'Helvetica';font-size:99.99px;fill:#000000" text-anchor="middle">60,000</text>
	<line x1="3758.29" y1="2489.19" x2="3758.29" y2="2529.16" style="stroke:#000000;stroke-width:5.76"/>
	<text x="3758.29" y="2619.14" style="font-family:'Helvetica';font-size:99.99px;fill:#000000" text-anchor="middle">80,000</text>
	<text x="2053.51" y="2729.16" style="font-family:'Helvetica';font-size:99.99px;fill:#000000" text-anchor="middle">mean of earnings</text>
	<line x1="248.00" y1="2489.19" x2="248.00" y2="100.86" style="stroke:#000000;stroke-width:5.76"/>
	<text x="207.90" y="2234.01" style="font-family:'Helvetica';font-size:99.99px;fill:#000000" text-anchor="end">5</text>
	<text x="207.90" y="1782.06" style="font-family:'Helvetica';font-size:99.99px;fill:#000000" text-anchor="end">4</text>
	<text x="207.90" y="1329.99" style="font-family:'Helvetica';font-size:99.99px;fill:#000000" text-anchor="end">3</text>
	<text x="207.90" y="878.04" style="font-family:'Helvetica';font-size:99.99px;fill:#000000" text-anchor="end">2</text>
	<text x="207.90" y="426.09" style="font-family:'Helvetica';font-size:99.99px;fill:#000000" text-anchor="end">1</text>
</svg>
