<?xml version="1.0" encoding="UTF-8" standalone="no"?>
<!-- This is a Stata 17.0 generated SVG file (http://www.stata.com) -->

<svg version="1.1" width="5.500in" height="4.000in" viewBox="0 0 3960 2880" xmlns="http://www.w3.org/2000/svg" xmlns:xlink="http://www.w3.org/1999/xlink">
	<desc>Stata Graph - Graph</desc>
	<rect x="0" y="0" width="3960" height="2880" style="fill:#EAF2F3;stroke:none"/>
	<rect x="0.00" y="0.00" width="3959.88" height="2880.00" style="fill:#EAF2F3"/>
	<rect x="2.88" y="2.88" width="3954.12" height="2874.24" style="fill:none;stroke:#EAF2F3;stroke-width:5.76"/>
	<rect x="403.80" y="100.86" width="3455.22" height="2388.33" style="fill:#FFFFFF"/>
	<rect x="406.68" y="103.74" width="3449.46" height="2382.57" style="fill:none;stroke:#FFFFFF;stroke-width:5.76"/>
	<line x1="403.80" y1="2489.19" x2="403.80" y2="100.86" style="stroke:#EAF2F3;stroke-width:8.64"/>
	<line x1="1057.69" y1="2489.19" x2="1057.69" y2="100.86" style="stroke:#EAF2F3;stroke-width:8.64"/>
	<line x1="1711.59" y1="2489.19" x2="1711.59" y2="100.86" style="stroke:#EAF2F3;stroke-width:8.64"/>
	<line x1="2365.48" y1="2489.19" x2="2365.48" y2="100.86" style="stroke:#EAF2F3;stroke-width:8.64"/>
	<line x1="3019.38" y1="2489.19" x2="3019.38" y2="100.86" style="stroke:#EAF2F3;stroke-width:8.64"/>
	<line x1="3673.27" y1="2489.19" x2="3673.27" y2="100.86" style="stroke:#EAF2F3;stroke-width:8.64"/>
	<rect x="403.80" y="2267.79" width="1346.03" height="100.49" style="fill:#1A476F"/>
	<rect x="406.68" y="2270.67" width="1340.27" height="94.73" style="fill:none;stroke:#1A476F;stroke-width:5.76"/>
	<rect x="403.80" y="2099.86" width="3354.49" height="100.49" style="fill:#1A476F"/>
	<rect x="406.68" y="2102.74" width="3348.73" height="94.73" style="fill:none;stroke:#1A476F;stroke-width:5.76"/>
	<rect x="403.80" y="1798.27" width="1379.32" height="100.49" style="fill:#1A476F"/>
	<rect x="406.68" y="1801.15" width="1373.56" height="94.73" style="fill:none;stroke:#1A476F;stroke-width:5.76"/>
	<rect x="403.80" y="1630.33" width="3012.82" height="100.49" style="fill:#1A476F"/>
	<rect x="406.68" y="1633.21" width="3007.06" height="94.73" style="fill:none;stroke:#1A476F;stroke-width:5.76"/>
	<rect x="403.80" y="1328.75" width="1357.04" height="100.49" style="fill:#1A476F"/>
	<rect x="406.68" y="1331.63" width="1351.28" height="94.73" style="fill:none;stroke:#1A476F;stroke-width:5.76"/>
	<rect x="403.80" y="1160.81" width="3043.63" height="100.49" style="fill:#1A476F"/>
	<rect x="406.68" y="1163.69" width="3037.87" height="94.73" style="fill:none;stroke:#1A476F;stroke-width:5.76"/>
	<rect x="403.80" y="859.10" width="1313.48" height="100.61" style="fill:#1A476F"/>
	<rect x="406.68" y="861.98" width="1307.72" height="94.85" style="fill:none;stroke:#1A476F;stroke-width:5.76"/>
	<rect x="403.80" y="691.29" width="3247.57" height="100.49" style="fill:#1A476F"/>
	<rect x="406.68" y="694.17" width="3241.81" height="94.73" style="fill:none;stroke:#1A476F;stroke-width:5.76"/>
	<rect x="403.80" y="389.58" width="1361.50" height="100.61" style="fill:#1A476F"/>
	<rect x="406.68" y="392.46" width="1355.74" height="94.85" style="fill:none;stroke:#1A476F;stroke-width:5.76"/>
	<rect x="403.80" y="221.77" width="3158.22" height="100.49" style="fill:#1A476F"/>
	<rect x="406.68" y="224.65" width="3152.46" height="94.73" style="fill:none;stroke:#1A476F;stroke-width:5.76"/>
	<line x1="403.80" y1="2489.19" x2="3859.02" y2="2489.19" style="stroke:#000000;stroke-width:5.76"/>
	<line x1="403.80" y1="2489.19" x2="403.80" y2="2529.16" style="stroke:#000000;stroke-width:5.76"/>
	<text x="403.80" y="2619.14" style="font-family:'Helvetica';font-size:99.99px;fill:#000000" text-anchor="middle">0</text>
	<line x1="1057.69" y1="2489.19" x2="1057.69" y2="2529.16" style="stroke:#000000;stroke-width:5.76"/>
	<text x="1057.69" y="2619.14" style="font-family:'Helvetica';font-size:99.99px;fill:#000000" text-anchor="middle">20,000</text>
	<line x1="1711.59" y1="2489.19" x2="1711.59" y2="2529.16" style="stroke:#000000;stroke-width:5.76"/>
	<text x="1711.59" y="2619.14" style="font-family:'Helvetica';font-size:99.99px;fill:#000000" text-anchor="middle">40,000</text>
	<line x1="2365.48" y1="2489.19" x2="2365.48" y2="2529.16" style="stroke:#000000;stroke-width:5.76"/>
	<text x="2365.48" y="2619.14" style="font-family:'Helvetica';font-size:99.99px;fill:#000000" text-anchor="middle">60,000</text>
	<line x1="3019.38" y1="2489.19" x2="3019.38" y2="2529.16" style="stroke:#000000;stroke-width:5.76"/>
	<text x="3019.38" y="2619.14" style="font-family:'Helvetica';font-size:99.99px;fill:#000000" text-anchor="middle">80,000</text>
	<line x1="3673.27" y1="2489.19" x2="3673.27" y2="2529.16" style="stroke:#000000;stroke-width:5.76"/>
	<text x="3673.27" y="2619.14" style="font-family:'Helvetica';font-size:99.99px;fill:#000000" text-anchor="middle">100000</text>
	<text x="2131.47" y="2729.16" style="font-family:'Helvetica';font-size:99.99px;fill:#000000" text-anchor="middle">mean of earnings</text>
	<text x="216.69" y="2272.67" style="font-family:'Helvetica';font-size:110.01px;fill:#000000" text-anchor="end">5</text>
	<text x="216.69" y="1803.02" style="font-family:'Helvetica';font-size:110.01px;fill:#000000" text-anchor="end">4</text>
	<text x="216.69" y="1333.50" style="font-family:'Helvetica';font-size:110.01px;fill:#000000" text-anchor="end">3</text>
	<text x="216.69" y="863.98" style="font-family:'Helvetica';font-size:110.01px;fill:#000000" text-anchor="end">2</text>
	<text x="216.69" y="394.45" style="font-family:'Helvetica';font-size:110.01px;fill:#000000" text-anchor="end">1</text>
	<line x1="403.80" y1="2489.19" x2="403.80" y2="100.86" style="stroke:#000000;stroke-width:5.76"/>
	<text x="363.83" y="2353.06" style="font-family:'Helvetica';font-size:99.99px;fill:#000000" text-anchor="end">1</text>
	<text x="363.83" y="2185.13" style="font-family:'Helvetica';font-size:99.99px;fill:#000000" text-anchor="end">0</text>
	<text x="363.83" y="1883.54" style="font-family:'Helvetica';font-size:99.99px;fill:#000000" text-anchor="end">1</text>
	<text x="363.83" y="1715.61" style="font-family:'Helvetica';font-size:99.99px;fill:#000000" text-anchor="end">0</text>
	<text x="363.83" y="1414.02" style="font-family:'Helvetica';font-size:99.99px;fill:#000000" text-anchor="end">1</text>
	<text x="363.83" y="1246.08" style="font-family:'Helvetica';font-size:99.99px;fill:#000000" text-anchor="end">0</text>
	<text x="363.83" y="944.50" style="font-family:'Helvetica';font-size:99.99px;fill:#000000" text-anchor="end">1</text>
	<text x="363.83" y="776.56" style="font-family:'Helvetica';font-size:99.99px;fill:#000000" text-anchor="end">0</text>
	<text x="363.83" y="474.97" style="font-family:'Helvetica';font-size:99.99px;fill:#000000" text-anchor="end">1</text>
	<text x="363.83" y="307.04" style="font-family:'Helvetica';font-size:99.99px;fill:#000000" text-anchor="end">0</text>
</svg>
