<?xml version="1.0" encoding="UTF-8" standalone="no"?>
<!-- This is a Stata 17.0 generated SVG file (http://www.stata.com) -->

<svg version="1.1" width="5.500in" height="4.000in" viewBox="0 0 3960 2880" xmlns="http://www.w3.org/2000/svg" xmlns:xlink="http://www.w3.org/1999/xlink">
	<desc>Stata Graph - Graph</desc>
	<rect x="0" y="0" width="3960" height="2880" style="fill:#EAF2F3;stroke:none"/>
	<rect x="0.00" y="0.00" width="3959.88" height="2880.00" style="fill:#EAF2F3"/>
	<rect x="2.88" y="2.88" width="3954.12" height="2874.24" style="fill:none;stroke:#EAF2F3;stroke-width:5.76"/>
	<rect x="390.80" y="100.86" width="3468.22" height="2132.77" style="fill:#FFFFFF"/>
	<rect x="393.68" y="103.74" width="3462.46" height="2127.01" style="fill:none;stroke:#FFFFFF;stroke-width:5.76"/>
	<line x1="390.80" y1="1971.03" x2="3859.02" y2="1971.03" style="stroke:#EAF2F3;stroke-width:8.64"/>
	<line x1="390.80" y1="1067.62" x2="3859.02" y2="1067.62" style="stroke:#EAF2F3;stroke-width:8.64"/>
	<line x1="390.80" y1="164.22" x2="3859.02" y2="164.22" style="stroke:#EAF2F3;stroke-width:8.64"/>
	<line x1="1916.02" y1="2233.63" x2="1916.02" y2="2176.09" style="stroke:#C10534;stroke-width:8.64"/>
	<line x1="1916.02" y1="2150.10" x2="1916.02" y2="2147.25" style="stroke:#C10534;stroke-width:8.64"/>
	<line x1="1916.02" y1="2121.27" x2="1916.02" y2="2063.72" style="stroke:#C10534;stroke-width:8.64"/>
	<line x1="1916.02" y1="2037.73" x2="1916.02" y2="2034.88" style="stroke:#C10534;stroke-width:8.64"/>
	<line x1="1916.02" y1="2008.90" x2="1916.02" y2="1951.35" style="stroke:#C10534;stroke-width:8.64"/>
	<line x1="1916.02" y1="1925.49" x2="1916.02" y2="1922.52" style="stroke:#C10534;stroke-width:8.64"/>
	<line x1="1916.02" y1="1896.65" x2="1916.02" y2="1838.98" style="stroke:#C10534;stroke-width:8.64"/>
	<line x1="1916.02" y1="1813.12" x2="1916.02" y2="1810.27" style="stroke:#C10534;stroke-width:8.64"/>
	<line x1="1916.02" y1="1784.28" x2="1916.02" y2="1726.74" style="stroke:#C10534;stroke-width:8.64"/>
	<line x1="1916.02" y1="1700.75" x2="1916.02" y2="1697.90" style="stroke:#C10534;stroke-width:8.64"/>
	<line x1="1916.02" y1="1671.91" x2="1916.02" y2="1614.37" style="stroke:#C10534;stroke-width:8.64"/>
	<line x1="1916.02" y1="1588.38" x2="1916.02" y2="1585.53" style="stroke:#C10534;stroke-width:8.64"/>
	<line x1="1916.02" y1="1559.55" x2="1916.02" y2="1502.00" style="stroke:#C10534;stroke-width:8.64"/>
	<line x1="1916.02" y1="1476.01" x2="1916.02" y2="1473.17" style="stroke:#C10534;stroke-width:8.64"/>
	<line x1="1916.02" y1="1447.18" x2="1916.02" y2="1389.63" style="stroke:#C10534;stroke-width:8.64"/>
	<line x1="1916.02" y1="1363.64" x2="1916.02" y2="1360.80" style="stroke:#C10534;stroke-width:8.64"/>
	<line x1="1916.02" y1="1334.93" x2="1916.02" y2="1277.26" style="stroke:#C10534;stroke-width:8.64"/>
	<line x1="1916.02" y1="1251.40" x2="1916.02" y2="1248.43" style="stroke:#C10534;stroke-width:8.64"/>
	<line x1="1916.02" y1="1222.56" x2="1916.02" y2="1165.02" style="stroke:#C10534;stroke-width:8.64"/>
	<line x1="1916.02" y1="1139.03" x2="1916.02" y2="1136.18" style="stroke:#C10534;stroke-width:8.64"/>
	<line x1="1916.02" y1="1110.20" x2="1916.02" y2="1052.65" style="stroke:#C10534;stroke-width:8.64"/>
	<line x1="1916.02" y1="1026.66" x2="1916.02" y2="1023.82" style="stroke:#C10534;stroke-width:8.64"/>
	<line x1="1916.02" y1="997.83" x2="1916.02" y2="940.28" style="stroke:#C10534;stroke-width:8.64"/>
	<line x1="1916.02" y1="914.29" x2="1916.02" y2="911.45" style="stroke:#C10534;stroke-width:8.64"/>
	<line x1="1916.02" y1="885.46" x2="1916.02" y2="827.91" style="stroke:#C10534;stroke-width:8.64"/>
	<line x1="1916.02" y1="801.93" x2="1916.02" y2="799.08" style="stroke:#C10534;stroke-width:8.64"/>
	<line x1="1916.02" y1="773.21" x2="1916.02" y2="715.54" style="stroke:#C10534;stroke-width:8.64"/>
	<line x1="1916.02" y1="689.68" x2="1916.02" y2="686.71" style="stroke:#C10534;stroke-width:8.64"/>
	<line x1="1916.02" y1="660.85" x2="1916.02" y2="603.18" style="stroke:#C10534;stroke-width:8.64"/>
	<line x1="1916.02" y1="577.31" x2="1916.02" y2="574.47" style="stroke:#C10534;stroke-width:8.64"/>
	<line x1="1916.02" y1="548.48" x2="1916.02" y2="490.93" style="stroke:#C10534;stroke-width:8.64"/>
	<line x1="1916.02" y1="464.94" x2="1916.02" y2="462.10" style="stroke:#C10534;stroke-width:8.64"/>
	<line x1="1916.02" y1="436.11" x2="1916.02" y2="378.56" style="stroke:#C10534;stroke-width:8.64"/>
	<line x1="1916.02" y1="352.57" x2="1916.02" y2="349.73" style="stroke:#C10534;stroke-width:8.64"/>
	<line x1="1916.02" y1="323.74" x2="1916.02" y2="266.19" style="stroke:#C10534;stroke-width:8.64"/>
	<line x1="1916.02" y1="240.21" x2="1916.02" y2="237.36" style="stroke:#C10534;stroke-width:8.64"/>
	<line x1="1916.02" y1="211.37" x2="1916.02" y2="153.83" style="stroke:#C10534;stroke-width:8.64"/>
	<line x1="1916.02" y1="127.84" x2="1916.02" y2="124.99" style="stroke:#C10534;stroke-width:8.64"/>
	<path d=" M454.04 2161.24 L662.93 2170.40 L871.82 2124.48 L1080.59 2079.31 L1289.47 2073.62 L1498.37 2034.88 L1707.13 1966.45 L1916.02 1982.41 L2124.91 1601.25 L2333.68 1787.38 L2542.57 1873.76 L2751.46 1909.27 L2960.22 1884.03 L3169.11 1875.61 L3378.00 1850.99 L3586.77 1851.73 L3795.66 1808.17" stroke-linejoin="round" style="fill:none;stroke:#1A476F;stroke-width:8.64"/>
	<path d=" M454.04 610.23 L662.93 623.35 L871.82 556.40 L1080.59 508.38 L1289.47 479.30 L1498.37 448.24 L1707.13 382.15 L1916.02 385.74 L2124.91 383.02 L2333.68 387.97 L2542.57 386.36 L2751.46 386.11 L2960.22 324.85 L3169.11 307.40 L3378.00 255.06 L3586.77 239.96 L3795.66 217.93" stroke-linejoin="round" style="fill:none;stroke:#90353B;stroke-width:8.64"/>
	<line x1="390.80" y1="2233.63" x2="390.80" y2="100.86" style="stroke:#000000;stroke-width:5.76"/>
	<line x1="390.80" y1="1971.03" x2="350.83" y2="1971.03" style="stroke:#000000;stroke-width:5.76"/>
	<text x="300.72" y="1971.03" style="font-family:'Helvetica';font-size:99.99px;fill:#000000" transform="rotate(-90 300.72,1971.03)" text-anchor="middle">10</text>
	<line x1="390.80" y1="1067.62" x2="350.83" y2="1067.62" style="stroke:#000000;stroke-width:5.76"/>
	<text x="300.72" y="1067.62" style="font-family:'Helvetica';font-size:99.99px;fill:#000000" transform="rotate(-90 300.72,1067.62)" text-anchor="middle">10.5</text>
	<line x1="390.80" y1="164.22" x2="350.83" y2="164.22" style="stroke:#000000;stroke-width:5.76"/>
	<text x="300.72" y="164.22" style="font-family:'Helvetica';font-size:99.99px;fill:#000000" transform="rotate(-90 300.72,164.22)" text-anchor="middle">11</text>
	<text x="190.71" y="1167.25" style="font-family:'Helvetica';font-size:99.99px;fill:#000000" transform="rotate(-90 190.71,1167.25)" text-anchor="middle">Log-earnings</text>
	<line x1="390.80" y1="2233.63" x2="3859.02" y2="2233.63" style="stroke:#000000;stroke-width:5.76"/>
	<line x1="454.16" y1="2233.63" x2="454.16" y2="2273.73" style="stroke:#000000;stroke-width:5.76"/>
	<text x="454.16" y="2363.59" style="font-family:'Helvetica';font-size:99.99px;fill:#000000" text-anchor="middle">1995</text>
	<line x1="1498.37" y1="2233.63" x2="1498.37" y2="2273.73" style="stroke:#000000;stroke-width:5.76"/>
	<text x="1498.37" y="2363.59" style="font-family:'Helvetica';font-size:99.99px;fill:#000000" text-anchor="middle">2000</text>
	<line x1="2542.57" y1="2233.63" x2="2542.57" y2="2273.73" style="stroke:#000000;stroke-width:5.76"/>
	<text x="2542.57" y="2363.59" style="font-family:'Helvetica';font-size:99.99px;fill:#000000" text-anchor="middle">2005</text>
	<line x1="3586.89" y1="2233.63" x2="3586.89" y2="2273.73" style="stroke:#000000;stroke-width:5.76"/>
	<text x="3586.89" y="2363.59" style="font-family:'Helvetica';font-size:99.99px;fill:#000000" text-anchor="middle">2010</text>
	<text x="2124.91" y="2473.60" style="font-family:'Helvetica';font-size:99.99px;fill:#000000" text-anchor="middle">Year</text>
	<rect x="1234.53" y="2558.24" width="1780.76" height="186.37" style="fill:#FFFFFF"/>
	<rect x="1237.41" y="2561.12" width="1775.00" height="180.61" style="fill:none;stroke:#000000;stroke-width:5.76"/>
	<line x1="1277.72" y1="2651.43" x2="1652.06" y2="2651.43" style="stroke:#1A476F;stroke-width:8.64"/>
	<line x1="2204.85" y1="2651.43" x2="2579.32" y2="2651.43" style="stroke:#90353B;stroke-width:8.64"/>
	<text x="1712.08" y="2686.46" style="font-family:'Helvetica';font-size:99.99px;fill:#000000">Treated</text>
	<text x="2639.34" y="2686.46" style="font-family:'Helvetica';font-size:99.99px;fill:#000000">Control</text>
</svg>
