<?xml version="1.0" encoding="UTF-8" standalone="no"?>
<!-- This is a Stata 17.0 generated SVG file (http://www.stata.com) -->

<svg version="1.1" width="5.500in" height="4.000in" viewBox="0 0 3960 2880" xmlns="http://www.w3.org/2000/svg" xmlns:xlink="http://www.w3.org/1999/xlink">
	<desc>Stata Graph - Graph</desc>
	<rect x="0" y="0" width="3960" height="2880" style="fill:#EAF2F3;stroke:none"/>
	<rect x="0.00" y="0.00" width="3959.88" height="2880.00" style="fill:#EAF2F3"/>
	<rect x="2.88" y="2.88" width="3954.12" height="2874.24" style="fill:none;stroke:#EAF2F3;stroke-width:5.76"/>
	<rect x="390.80" y="100.86" width="3468.22" height="2518.39" style="fill:#FFFFFF"/>
	<rect x="393.68" y="103.74" width="3462.46" height="2512.63" style="fill:none;stroke:#FFFFFF;stroke-width:5.76"/>
	<line x1="390.80" y1="2619.25" x2="3859.02" y2="2619.25" style="stroke:#EAF2F3;stroke-width:8.64"/>
	<line x1="390.80" y1="2014.84" x2="3859.02" y2="2014.84" style="stroke:#EAF2F3;stroke-width:8.64"/>
	<line x1="390.80" y1="1410.42" x2="3859.02" y2="1410.42" style="stroke:#EAF2F3;stroke-width:8.64"/>
	<line x1="390.80" y1="806.01" x2="3859.02" y2="806.01" style="stroke:#EAF2F3;stroke-width:8.64"/>
	<line x1="390.80" y1="201.60" x2="3859.02" y2="201.60" style="stroke:#EAF2F3;stroke-width:8.64"/>
	<rect x="572.47" y="429.80" width="404.29" height="2189.45" style="fill:#1A476F"/>
	<rect x="575.35" y="432.68" width="398.53" height="2183.69" style="fill:none;stroke:#1A476F;stroke-width:5.76"/>
	<rect x="1247.65" y="446.01" width="404.29" height="2173.24" style="fill:#1A476F"/>
	<rect x="1250.53" y="448.89" width="398.53" height="2167.48" style="fill:none;stroke:#1A476F;stroke-width:5.76"/>
	<rect x="1922.83" y="487.59" width="404.29" height="2131.66" style="fill:#1A476F"/>
	<rect x="1925.71" y="490.47" width="398.53" height="2125.90" style="fill:none;stroke:#1A476F;stroke-width:5.76"/>
	<rect x="2598.01" y="531.40" width="404.29" height="2087.85" style="fill:#1A476F"/>
	<rect x="2600.89" y="534.28" width="398.53" height="2082.09" style="fill:none;stroke:#1A476F;stroke-width:5.76"/>
	<rect x="3273.19" y="336.98" width="404.29" height="2282.27" style="fill:#1A476F"/>
	<rect x="3276.07" y="339.86" width="398.53" height="2276.51" style="fill:none;stroke:#1A476F;stroke-width:5.76"/>
	<line x1="390.80" y1="2619.25" x2="390.80" y2="100.86" style="stroke:#000000;stroke-width:5.76"/>
	<line x1="390.80" y1="2619.25" x2="350.83" y2="2619.25" style="stroke:#000000;stroke-width:5.76"/>
	<text x="300.72" y="2619.25" style="font-family:'Helvetica';font-size:99.99px;fill:#000000" transform="rotate(-90 300.72,2619.25)" text-anchor="middle">0</text>
	<line x1="390.80" y1="2014.84" x2="350.83" y2="2014.84" style="stroke:#000000;stroke-width:5.76"/>
	<text x="300.72" y="2014.84" style="font-family:'Helvetica';font-size:99.99px;fill:#000000" transform="rotate(-90 300.72,2014.84)" text-anchor="middle">20,000</text>
	<line x1="390.80" y1="1410.42" x2="350.83" y2="1410.42" style="stroke:#000000;stroke-width:5.76"/>
	<text x="300.72" y="1410.42" style="font-family:'Helvetica';font-size:99.99px;fill:#000000" transform="rotate(-90 300.72,1410.42)" text-anchor="middle">40,000</text>
	<line x1="390.80" y1="806.01" x2="350.83" y2="806.01" style="stroke:#000000;stroke-width:5.76"/>
	<text x="300.72" y="806.01" style="font-family:'Helvetica';font-size:99.99px;fill:#000000" transform="rotate(-90 300.72,806.01)" text-anchor="middle">60,000</text>
	<line x1="390.80" y1="201.60" x2="350.83" y2="201.60" style="stroke:#000000;stroke-width:5.76"/>
	<text x="300.72" y="201.60" style="font-family:'Helvetica';font-size:99.99px;fill:#000000" transform="rotate(-90 300.72,201.60)" text-anchor="middle">80,000</text>
	<text x="190.71" y="1360.06" style="font-family:'Helvetica';font-size:99.99px;fill:#000000" transform="rotate(-90 190.71,1360.06)" text-anchor="middle">mean of earnings</text>
	<line x1="390.80" y1="2619.25" x2="3859.02" y2="2619.25" style="stroke:#000000;stroke-width:5.76"/>
	<text x="774.55" y="2729.16" style="font-family:'Helvetica';font-size:99.99px;fill:#000000" text-anchor="middle">1</text>
	<text x="1449.73" y="2729.16" style="font-family:'Helvetica';font-size:99.99px;fill:#000000" text-anchor="middle">2</text>
	<text x="2124.91" y="2729.16" style="font-family:'Helvetica';font-size:99.99px;fill:#000000" text-anchor="middle">3</text>
	<text x="2800.09" y="2729.16" style="font-family:'Helvetica';font-size:99.99px;fill:#000000" text-anchor="middle">4</text>
	<text x="3475.27" y="2729.16" style="font-family:'Helvetica';font-size:99.99px;fill:#000000" text-anchor="middle">5</text>
</svg>
