<?xml version="1.0" encoding="UTF-8" standalone="no"?>
<!-- This is a Stata 17.0 generated SVG file (http://www.stata.com) -->

<svg version="1.1" width="5.500in" height="4.000in" viewBox="0 0 3960 2880" xmlns="http://www.w3.org/2000/svg" xmlns:xlink="http://www.w3.org/1999/xlink">
	<desc>Stata Graph - Graph</desc>
	<rect x="0" y="0" width="3960" height="2880" style="fill:#EAF2F3;stroke:none"/>
	<rect x="0.00" y="0.00" width="3959.88" height="2880.00" style="fill:#EAF2F3"/>
	<rect x="2.88" y="2.88" width="3954.12" height="2874.24" style="fill:none;stroke:#EAF2F3;stroke-width:5.76"/>
	<rect x="63.36" y="237.98" width="1916.64" height="2578.66" style="fill:#EAF2F3"/>
	<rect x="65.52" y="240.14" width="1912.32" height="2574.34" style="fill:none;stroke:#EAF2F3;stroke-width:4.32"/>
	<rect x="356.40" y="668.27" width="1547.99" height="1500.52" style="fill:#FFFFFF"/>
	<rect x="358.56" y="670.43" width="1543.67" height="1496.20" style="fill:none;stroke:#FFFFFF;stroke-width:4.32"/>
	<line x1="356.40" y1="2168.79" x2="1904.39" y2="2168.79" style="stroke:#EAF2F3;stroke-width:6.48"/>
	<line x1="356.40" y1="1805.57" x2="1904.39" y2="1805.57" style="stroke:#EAF2F3;stroke-width:6.48"/>
	<line x1="356.40" y1="1442.35" x2="1904.39" y2="1442.35" style="stroke:#EAF2F3;stroke-width:6.48"/>
	<line x1="356.40" y1="1079.01" x2="1904.39" y2="1079.01" style="stroke:#EAF2F3;stroke-width:6.48"/>
	<line x1="356.40" y1="715.79" x2="1904.39" y2="715.79" style="stroke:#EAF2F3;stroke-width:6.48"/>
	<rect x="573.33" y="2168.66" width="19.55" height="0.12" style="fill:#CAC27E"/>
	<rect x="576.57" y="2165.55" width="13.07" height="6.36" style="fill:none;stroke:#D7D29E;stroke-width:6.48"/>
	<rect x="592.89" y="2168.79" width="19.68" height="0.00" style="fill:#CAC27E"/>
	<rect x="596.13" y="2165.55" width="13.20" height="6.48" style="fill:none;stroke:#D7D29E;stroke-width:6.48"/>
	<rect x="612.56" y="2168.79" width="19.55" height="0.00" style="fill:#CAC27E"/>
	<rect x="615.80" y="2165.55" width="13.07" height="6.48" style="fill:none;stroke:#D7D29E;stroke-width:6.48"/>
	<rect x="632.12" y="2168.79" width="19.55" height="0.00" style="fill:#CAC27E"/>
	<rect x="635.35" y="2165.55" width="13.07" height="6.48" style="fill:none;stroke:#D7D29E;stroke-width:6.48"/>
	<rect x="651.67" y="2168.79" width="19.55" height="0.00" style="fill:#CAC27E"/>
	<rect x="654.91" y="2165.55" width="13.07" height="6.48" style="fill:none;stroke:#D7D29E;stroke-width:6.48"/>
	<rect x="671.22" y="2168.79" width="19.68" height="0.00" style="fill:#CAC27E"/>
	<rect x="674.46" y="2165.55" width="13.20" height="6.48" style="fill:none;stroke:#D7D29E;stroke-width:6.48"/>
	<rect x="690.90" y="2168.66" width="19.55" height="0.12" style="fill:#CAC27E"/>
	<rect x="694.14" y="2165.55" width="13.07" height="6.36" style="fill:none;stroke:#D7D29E;stroke-width:6.48"/>
	<rect x="710.45" y="2168.54" width="19.55" height="0.25" style="fill:#CAC27E"/>
	<rect x="713.69" y="2165.55" width="13.07" height="6.23" style="fill:none;stroke:#D7D29E;stroke-width:6.48"/>
	<rect x="730.00" y="2168.54" width="19.55" height="0.25" style="fill:#CAC27E"/>
	<rect x="733.24" y="2165.55" width="13.07" height="6.23" style="fill:none;stroke:#D7D29E;stroke-width:6.48"/>
	<rect x="749.55" y="2168.29" width="19.68" height="0.50" style="fill:#CAC27E"/>
	<rect x="752.79" y="2165.55" width="13.20" height="5.98" style="fill:none;stroke:#D7D29E;stroke-width:6.48"/>
	<rect x="769.23" y="2167.92" width="19.55" height="0.87" style="fill:#CAC27E"/>
	<rect x="772.47" y="2165.55" width="13.07" height="5.61" style="fill:none;stroke:#D7D29E;stroke-width:6.48"/>
	<rect x="788.78" y="2167.43" width="19.55" height="1.36" style="fill:#CAC27E"/>
	<rect x="792.02" y="2165.55" width="13.07" height="5.12" style="fill:none;stroke:#D7D29E;stroke-width:6.48"/>
	<rect x="808.34" y="2166.93" width="19.55" height="1.86" style="fill:#CAC27E"/>
	<rect x="811.57" y="2165.55" width="13.07" height="4.62" style="fill:none;stroke:#D7D29E;stroke-width:6.48"/>
	<rect x="827.89" y="2165.82" width="19.68" height="2.97" style="fill:#CAC27E"/>
	<rect x="831.13" y="2165.55" width="13.20" height="3.51" style="fill:none;stroke:#D7D29E;stroke-width:6.48"/>
	<rect x="847.56" y="2163.71" width="19.55" height="5.07" style="fill:#CAC27E"/>
	<rect x="850.80" y="2165.55" width="13.07" height="1.41" style="fill:none;stroke:#D7D29E;stroke-width:6.48"/>
	<rect x="867.12" y="2160.25" width="19.55" height="8.54" style="fill:#CAC27E"/>
	<rect x="870.36" y="2163.49" width="13.07" height="2.06" style="fill:none;stroke:#D7D29E;stroke-width:6.48"/>
	<rect x="886.67" y="2154.80" width="19.55" height="13.98" style="fill:#CAC27E"/>
	<rect x="889.91" y="2158.04" width="13.07" height="7.50" style="fill:none;stroke:#D7D29E;stroke-width:6.48"/>
	<rect x="906.22" y="2146.26" width="19.68" height="22.52" style="fill:#CAC27E"/>
	<rect x="909.46" y="2149.50" width="13.20" height="16.04" style="fill:none;stroke:#D7D29E;stroke-width:6.48"/>
	<rect x="925.90" y="2131.29" width="19.55" height="37.50" style="fill:#CAC27E"/>
	<rect x="929.14" y="2134.53" width="13.07" height="31.02" style="fill:none;stroke:#D7D29E;stroke-width:6.48"/>
	<rect x="945.45" y="2107.16" width="19.55" height="61.63" style="fill:#CAC27E"/>
	<rect x="948.69" y="2110.40" width="13.07" height="55.15" style="fill:none;stroke:#D7D29E;stroke-width:6.48"/>
	<rect x="965.00" y="2071.27" width="19.55" height="97.52" style="fill:#CAC27E"/>
	<rect x="968.24" y="2074.51" width="13.07" height="91.04" style="fill:none;stroke:#D7D29E;stroke-width:6.48"/>
	<rect x="984.56" y="2014.96" width="19.68" height="153.83" style="fill:#CAC27E"/>
	<rect x="987.79" y="2018.20" width="13.20" height="147.35" style="fill:none;stroke:#D7D29E;stroke-width:6.48"/>
	<rect x="1004.23" y="1933.16" width="19.55" height="235.63" style="fill:#CAC27E"/>
	<rect x="1007.47" y="1936.40" width="13.07" height="229.15" style="fill:none;stroke:#D7D29E;stroke-width:6.48"/>
	<rect x="1023.78" y="1825.62" width="19.55" height="343.17" style="fill:#CAC27E"/>
	<rect x="1027.02" y="1828.86" width="13.07" height="336.69" style="fill:none;stroke:#D7D29E;stroke-width:6.48"/>
	<rect x="1043.34" y="1689.49" width="19.55" height="479.30" style="fill:#CAC27E"/>
	<rect x="1046.58" y="1692.73" width="13.07" height="472.82" style="fill:none;stroke:#D7D29E;stroke-width:6.48"/>
	<rect x="1062.89" y="1533.93" width="19.68" height="634.86" style="fill:#CAC27E"/>
	<rect x="1066.13" y="1537.17" width="13.20" height="628.38" style="fill:none;stroke:#D7D29E;stroke-width:6.48"/>
	<rect x="1082.57" y="1347.80" width="19.55" height="820.98" style="fill:#CAC27E"/>
	<rect x="1085.80" y="1351.04" width="13.07" height="814.50" style="fill:none;stroke:#D7D29E;stroke-width:6.48"/>
	<rect x="1102.12" y="1176.40" width="19.55" height="992.38" style="fill:#CAC27E"/>
	<rect x="1105.36" y="1179.64" width="13.07" height="985.90" style="fill:none;stroke:#D7D29E;stroke-width:6.48"/>
	<rect x="1121.67" y="1035.20" width="19.55" height="1133.59" style="fill:#CAC27E"/>
	<rect x="1124.91" y="1038.44" width="13.07" height="1127.11" style="fill:none;stroke:#D7D29E;stroke-width:6.48"/>
	<rect x="1141.22" y="942.63" width="19.68" height="1226.15" style="fill:#CAC27E"/>
	<rect x="1144.46" y="945.87" width="13.20" height="1219.67" style="fill:none;stroke:#D7D29E;stroke-width:6.48"/>
	<rect x="1160.90" y="907.98" width="19.55" height="1260.80" style="fill:#CAC27E"/>
	<rect x="1164.14" y="911.22" width="13.07" height="1254.32" style="fill:none;stroke:#D7D29E;stroke-width:6.48"/>
	<rect x="1180.45" y="944.74" width="19.55" height="1224.05" style="fill:#CAC27E"/>
	<rect x="1183.69" y="947.98" width="13.07" height="1217.57" style="fill:none;stroke:#D7D29E;stroke-width:6.48"/>
	<rect x="1200.00" y="1048.07" width="19.55" height="1120.72" style="fill:#CAC27E"/>
	<rect x="1203.24" y="1051.31" width="13.07" height="1114.24" style="fill:none;stroke:#D7D29E;stroke-width:6.48"/>
	<rect x="1219.56" y="1203.38" width="19.68" height="965.40" style="fill:#CAC27E"/>
	<rect x="1222.80" y="1206.62" width="13.20" height="958.92" style="fill:none;stroke:#D7D29E;stroke-width:6.48"/>
	<rect x="1239.23" y="1372.43" width="19.55" height="796.36" style="fill:#CAC27E"/>
	<rect x="1242.47" y="1375.67" width="13.07" height="789.88" style="fill:none;stroke:#D7D29E;stroke-width:6.48"/>
	<rect x="1258.79" y="1564.62" width="19.55" height="604.17" style="fill:#CAC27E"/>
	<rect x="1262.02" y="1567.86" width="13.07" height="597.69" style="fill:none;stroke:#D7D29E;stroke-width:6.48"/>
	<rect x="1278.34" y="1723.64" width="19.55" height="445.14" style="fill:#CAC27E"/>
	<rect x="1281.58" y="1726.88" width="13.07" height="438.66" style="fill:none;stroke:#D7D29E;stroke-width:6.48"/>
	<rect x="1297.89" y="1866.83" width="19.68" height="301.96" style="fill:#CAC27E"/>
	<rect x="1301.13" y="1870.07" width="13.20" height="295.48" style="fill:none;stroke:#D7D29E;stroke-width:6.48"/>
	<rect x="1317.57" y="1968.68" width="19.55" height="200.11" style="fill:#CAC27E"/>
	<rect x="1320.81" y="1971.92" width="13.07" height="193.63" style="fill:none;stroke:#D7D29E;stroke-width:6.48"/>
	<rect x="1337.12" y="2049.61" width="19.55" height="119.17" style="fill:#CAC27E"/>
	<rect x="1340.36" y="2052.85" width="13.07" height="112.70" style="fill:none;stroke:#D7D29E;stroke-width:6.48"/>
	<rect x="1356.67" y="2097.50" width="19.55" height="71.28" style="fill:#CAC27E"/>
	<rect x="1359.91" y="2100.74" width="13.07" height="64.80" style="fill:none;stroke:#D7D29E;stroke-width:6.48"/>
	<rect x="1376.22" y="2127.45" width="19.68" height="41.33" style="fill:#CAC27E"/>
	<rect x="1379.46" y="2130.69" width="13.20" height="34.85" style="fill:none;stroke:#D7D29E;stroke-width:6.48"/>
	<rect x="1395.90" y="2146.14" width="19.55" height="22.65" style="fill:#CAC27E"/>
	<rect x="1399.14" y="2149.38" width="13.07" height="16.17" style="fill:none;stroke:#D7D29E;stroke-width:6.48"/>
	<rect x="1415.45" y="2156.41" width="19.55" height="12.38" style="fill:#CAC27E"/>
	<rect x="1418.69" y="2159.65" width="13.07" height="5.90" style="fill:none;stroke:#D7D29E;stroke-width:6.48"/>
	<rect x="1435.01" y="2162.35" width="19.55" height="6.44" style="fill:#CAC27E"/>
	<rect x="1438.24" y="2165.55" width="13.07" height="0.04" style="fill:none;stroke:#D7D29E;stroke-width:6.48"/>
	<rect x="1454.56" y="2165.32" width="19.68" height="3.47" style="fill:#CAC27E"/>
	<rect x="1457.80" y="2165.55" width="13.20" height="3.01" style="fill:none;stroke:#D7D29E;stroke-width:6.48"/>
	<rect x="1474.23" y="2166.81" width="19.55" height="1.98" style="fill:#CAC27E"/>
	<rect x="1477.47" y="2165.55" width="13.07" height="4.50" style="fill:none;stroke:#D7D29E;stroke-width:6.48"/>
	<rect x="1493.79" y="2167.67" width="19.55" height="1.11" style="fill:#CAC27E"/>
	<rect x="1497.03" y="2165.55" width="13.07" height="5.37" style="fill:none;stroke:#D7D29E;stroke-width:6.48"/>
	<rect x="1513.34" y="2168.17" width="19.55" height="0.62" style="fill:#CAC27E"/>
	<rect x="1516.58" y="2165.55" width="13.07" height="5.86" style="fill:none;stroke:#D7D29E;stroke-width:6.48"/>
	<rect x="1532.89" y="2168.29" width="19.68" height="0.50" style="fill:#CAC27E"/>
	<rect x="1536.13" y="2165.55" width="13.20" height="5.98" style="fill:none;stroke:#D7D29E;stroke-width:6.48"/>
	<rect x="1552.57" y="2168.54" width="19.55" height="0.25" style="fill:#CAC27E"/>
	<rect x="1555.81" y="2165.55" width="13.07" height="6.23" style="fill:none;stroke:#D7D29E;stroke-width:6.48"/>
	<rect x="1572.12" y="2168.54" width="19.55" height="0.25" style="fill:#CAC27E"/>
	<rect x="1575.36" y="2165.55" width="13.07" height="6.23" style="fill:none;stroke:#D7D29E;stroke-width:6.48"/>
	<rect x="1591.67" y="2168.79" width="19.55" height="0.00" style="fill:#CAC27E"/>
	<rect x="1594.91" y="2165.55" width="13.07" height="6.48" style="fill:none;stroke:#D7D29E;stroke-width:6.48"/>
	<rect x="1650.45" y="2168.79" width="19.55" height="0.00" style="fill:#CAC27E"/>
	<rect x="1653.69" y="2165.55" width="13.07" height="6.48" style="fill:none;stroke:#D7D29E;stroke-width:6.48"/>
	<rect x="1670.01" y="2168.79" width="19.55" height="0.00" style="fill:#CAC27E"/>
	<rect x="1673.25" y="2165.55" width="13.07" height="6.48" style="fill:none;stroke:#D7D29E;stroke-width:6.48"/>
	<rect x="1689.56" y="2168.79" width="19.68" height="0.00" style="fill:#CAC27E"/>
	<rect x="1692.80" y="2165.55" width="13.20" height="6.48" style="fill:none;stroke:#D7D29E;stroke-width:6.48"/>
	<line x1="356.40" y1="2168.79" x2="356.40" y2="668.27" style="stroke:#000000;stroke-width:4.32"/>
	<line x1="356.40" y1="2168.79" x2="326.45" y2="2168.79" style="stroke:#000000;stroke-width:4.32"/>
	<text x="288.92" y="2168.79" style="font-family:'Helvetica';font-size:74.99px;fill:#000000" transform="rotate(-90 288.92,2168.79)" text-anchor="middle">0</text>
	<line x1="356.40" y1="1805.57" x2="326.45" y2="1805.57" style="stroke:#000000;stroke-width:4.32"/>
	<text x="288.92" y="1805.57" style="font-family:'Helvetica';font-size:74.99px;fill:#000000" transform="rotate(-90 288.92,1805.57)" text-anchor="middle">.1</text>
	<line x1="356.40" y1="1442.35" x2="326.45" y2="1442.35" style="stroke:#000000;stroke-width:4.32"/>
	<text x="288.92" y="1442.35" style="font-family:'Helvetica';font-size:74.99px;fill:#000000" transform="rotate(-90 288.92,1442.35)" text-anchor="middle">.2</text>
	<line x1="356.40" y1="1079.01" x2="326.45" y2="1079.01" style="stroke:#000000;stroke-width:4.32"/>
	<text x="288.92" y="1079.01" style="font-family:'Helvetica';font-size:74.99px;fill:#000000" transform="rotate(-90 288.92,1079.01)" text-anchor="middle">.3</text>
	<line x1="356.40" y1="715.79" x2="326.45" y2="715.79" style="stroke:#000000;stroke-width:4.32"/>
	<text x="288.92" y="715.79" style="font-family:'Helvetica';font-size:74.99px;fill:#000000" transform="rotate(-90 288.92,715.79)" text-anchor="middle">.4</text>
	<text x="206.38" y="1418.59" style="font-family:'Helvetica';font-size:74.99px;fill:#000000" transform="rotate(-90 206.38,1418.59)" text-anchor="middle">Density</text>
	<line x1="356.40" y1="2168.79" x2="1904.39" y2="2168.79" style="stroke:#000000;stroke-width:4.32"/>
	<line x1="403.92" y1="2168.79" x2="403.92" y2="2198.73" style="stroke:#000000;stroke-width:4.32"/>
	<text x="403.92" y="2266.14" style="font-family:'Helvetica';font-size:74.99px;fill:#000000" text-anchor="middle">0</text>
	<line x1="767.13" y1="2168.79" x2="767.13" y2="2198.73" style="stroke:#000000;stroke-width:4.32"/>
	<text x="767.13" y="2266.14" style="font-family:'Helvetica';font-size:74.99px;fill:#000000" text-anchor="middle">5</text>
	<line x1="1130.33" y1="2168.79" x2="1130.33" y2="2198.73" style="stroke:#000000;stroke-width:4.32"/>
	<text x="1130.33" y="2266.14" style="font-family:'Helvetica';font-size:74.99px;fill:#000000" text-anchor="middle">10</text>
	<line x1="1493.66" y1="2168.79" x2="1493.66" y2="2198.73" style="stroke:#000000;stroke-width:4.32"/>
	<text x="1493.66" y="2266.14" style="font-family:'Helvetica';font-size:74.99px;fill:#000000" text-anchor="middle">15</text>
	<line x1="1856.87" y1="2168.79" x2="1856.87" y2="2198.73" style="stroke:#000000;stroke-width:4.32"/>
	<text x="1856.87" y="2266.14" style="font-family:'Helvetica';font-size:74.99px;fill:#000000" text-anchor="middle">20</text>
	<text x="1130.33" y="2348.69" style="font-family:'Helvetica';font-size:74.99px;fill:#000000" text-anchor="middle">Log-earnings</text>
	<rect x="1980.00" y="237.98" width="1916.52" height="2578.66" style="fill:#EAF2F3"/>
	<rect x="1982.16" y="240.14" width="1912.20" height="2574.34" style="fill:none;stroke:#EAF2F3;stroke-width:4.32"/>
	<rect x="2273.04" y="644.51" width="1547.87" height="1548.04" style="fill:#FFFFFF"/>
	<rect x="2275.20" y="646.67" width="1543.55" height="1543.72" style="fill:none;stroke:#FFFFFF;stroke-width:4.32"/>
	<line x1="2273.04" y1="2145.03" x2="3820.91" y2="2145.03" style="stroke:#EAF2F3;stroke-width:6.48"/>
	<line x1="2273.04" y1="1781.81" x2="3820.91" y2="1781.81" style="stroke:#EAF2F3;stroke-width:6.48"/>
	<line x1="2273.04" y1="1418.59" x2="3820.91" y2="1418.59" style="stroke:#EAF2F3;stroke-width:6.48"/>
	<line x1="2273.04" y1="1055.25" x2="3820.91" y2="1055.25" style="stroke:#EAF2F3;stroke-width:6.48"/>
	<line x1="2273.04" y1="692.03" x2="3820.91" y2="692.03" style="stroke:#EAF2F3;stroke-width:6.48"/>
	<circle cx="2320.44" cy="1884.40" r="19.70" style="fill:#1A476F"/>
	<circle cx="2320.44" cy="1884.40" r="16.46" style="fill:none;stroke:#1A476F;stroke-width:6.48"/>
	<circle cx="2411.27" cy="2066.94" r="19.70" style="fill:#1A476F"/>
	<circle cx="2411.27" cy="2066.94" r="16.46" style="fill:none;stroke:#1A476F;stroke-width:6.48"/>
	<circle cx="2502.10" cy="1870.54" r="19.70" style="fill:#1A476F"/>
	<circle cx="2502.10" cy="1870.54" r="16.46" style="fill:none;stroke:#1A476F;stroke-width:6.48"/>
	<circle cx="2592.93" cy="1664.86" r="19.70" style="fill:#1A476F"/>
	<circle cx="2592.93" cy="1664.86" r="16.46" style="fill:none;stroke:#1A476F;stroke-width:6.48"/>
	<circle cx="2683.64" cy="1598.16" r="19.70" style="fill:#1A476F"/>
	<circle cx="2683.64" cy="1598.16" r="16.46" style="fill:none;stroke:#1A476F;stroke-width:6.48"/>
	<circle cx="2774.48" cy="1586.65" r="19.70" style="fill:#1A476F"/>
	<circle cx="2774.48" cy="1586.65" r="16.46" style="fill:none;stroke:#1A476F;stroke-width:6.48"/>
	<circle cx="2865.31" cy="1249.05" r="19.70" style="fill:#1A476F"/>
	<circle cx="2865.31" cy="1249.05" r="16.46" style="fill:none;stroke:#1A476F;stroke-width:6.48"/>
	<circle cx="2956.14" cy="1390.50" r="19.70" style="fill:#1A476F"/>
	<circle cx="2956.14" cy="1390.50" r="16.46" style="fill:none;stroke:#1A476F;stroke-width:6.48"/>
	<circle cx="3046.85" cy="757.62" r="19.70" style="fill:#1A476F"/>
	<circle cx="3046.85" cy="757.62" r="16.46" style="fill:none;stroke:#1A476F;stroke-width:6.48"/>
	<circle cx="3137.68" cy="1168.11" r="19.70" style="fill:#1A476F"/>
	<circle cx="3137.68" cy="1168.11" r="16.46" style="fill:none;stroke:#1A476F;stroke-width:6.48"/>
	<circle cx="3228.51" cy="1333.08" r="19.70" style="fill:#1A476F"/>
	<circle cx="3228.51" cy="1333.08" r="16.46" style="fill:none;stroke:#1A476F;stroke-width:6.48"/>
	<circle cx="3319.35" cy="1504.35" r="19.70" style="fill:#1A476F"/>
	<circle cx="3319.35" cy="1504.35" r="16.46" style="fill:none;stroke:#1A476F;stroke-width:6.48"/>
	<circle cx="3410.18" cy="1359.19" r="19.70" style="fill:#1A476F"/>
	<circle cx="3410.18" cy="1359.19" r="16.46" style="fill:none;stroke:#1A476F;stroke-width:6.48"/>
	<circle cx="3500.89" cy="1341.37" r="19.70" style="fill:#1A476F"/>
	<circle cx="3500.89" cy="1341.37" r="16.46" style="fill:none;stroke:#1A476F;stroke-width:6.48"/>
	<circle cx="3591.72" cy="1172.57" r="19.70" style="fill:#1A476F"/>
	<circle cx="3591.72" cy="1172.57" r="16.46" style="fill:none;stroke:#1A476F;stroke-width:6.48"/>
	<circle cx="3682.55" cy="1206.11" r="19.70" style="fill:#1A476F"/>
	<circle cx="3682.55" cy="1206.11" r="16.46" style="fill:none;stroke:#1A476F;stroke-width:6.48"/>
	<circle cx="3773.39" cy="1079.26" r="19.70" style="fill:#1A476F"/>
	<circle cx="3773.39" cy="1079.26" r="16.46" style="fill:none;stroke:#1A476F;stroke-width:6.48"/>
	<line x1="2273.04" y1="2192.55" x2="2273.04" y2="644.51" style="stroke:#000000;stroke-width:4.32"/>
	<line x1="2273.04" y1="2145.03" x2="2242.97" y2="2145.03" style="stroke:#000000;stroke-width:4.32"/>
	<text x="2205.44" y="2145.03" style="font-family:'Helvetica';font-size:74.99px;fill:#000000" transform="rotate(-90 2205.44,2145.03)" text-anchor="middle">10.4</text>
	<line x1="2273.04" y1="1781.81" x2="2242.97" y2="1781.81" style="stroke:#000000;stroke-width:4.32"/>
	<text x="2205.44" y="1781.81" style="font-family:'Helvetica';font-size:74.99px;fill:#000000" transform="rotate(-90 2205.44,1781.81)" text-anchor="middle">10.45</text>
	<line x1="2273.04" y1="1418.59" x2="2242.97" y2="1418.59" style="stroke:#000000;stroke-width:4.32"/>
	<text x="2205.44" y="1418.59" style="font-family:'Helvetica';font-size:74.99px;fill:#000000" transform="rotate(-90 2205.44,1418.59)" text-anchor="middle">10.5</text>
	<line x1="2273.04" y1="1055.25" x2="2242.97" y2="1055.25" style="stroke:#000000;stroke-width:4.32"/>
	<text x="2205.44" y="1055.25" style="font-family:'Helvetica';font-size:74.99px;fill:#000000" transform="rotate(-90 2205.44,1055.25)" text-anchor="middle">10.55</text>
	<line x1="2273.04" y1="692.03" x2="2242.97" y2="692.03" style="stroke:#000000;stroke-width:4.32"/>
	<text x="2205.44" y="692.03" style="font-family:'Helvetica';font-size:74.99px;fill:#000000" transform="rotate(-90 2205.44,692.03)" text-anchor="middle">10.6</text>
	<text x="2123.02" y="1418.59" style="font-family:'Helvetica';font-size:74.99px;fill:#000000" transform="rotate(-90 2123.02,1418.59)" text-anchor="middle">Log-earnings</text>
	<line x1="2273.04" y1="2192.55" x2="3820.91" y2="2192.55" style="stroke:#000000;stroke-width:4.32"/>
	<line x1="2320.56" y1="2192.55" x2="2320.56" y2="2222.50" style="stroke:#000000;stroke-width:4.32"/>
	<text x="2320.56" y="2289.90" style="font-family:'Helvetica';font-size:74.99px;fill:#000000" text-anchor="middle">1995</text>
	<line x1="2774.60" y1="2192.55" x2="2774.60" y2="2222.50" style="stroke:#000000;stroke-width:4.32"/>
	<text x="2774.60" y="2289.90" style="font-family:'Helvetica';font-size:74.99px;fill:#000000" text-anchor="middle">2000</text>
	<line x1="3228.64" y1="2192.55" x2="3228.64" y2="2222.50" style="stroke:#000000;stroke-width:4.32"/>
	<text x="3228.64" y="2289.90" style="font-family:'Helvetica';font-size:74.99px;fill:#000000" text-anchor="middle">2005</text>
	<line x1="3682.55" y1="2192.55" x2="3682.55" y2="2222.50" style="stroke:#000000;stroke-width:4.32"/>
	<text x="3682.55" y="2289.90" style="font-family:'Helvetica';font-size:74.99px;fill:#000000" text-anchor="middle">2010</text>
	<text x="3046.97" y="2372.45" style="font-family:'Helvetica';font-size:74.99px;fill:#000000" text-anchor="middle">Year</text>
	<text x="1979.88" y="178.60" style="font-family:'Helvetica';font-size:139.96px;fill:#1E2D53" text-anchor="middle">Region 1</text>
</svg>
